PathFileType	4	(X/Y/Z)	C:\Users\WrightLab\Desktop\Jo\P5V127.trc
DataRate	CameraRate	NumFrames	NumMarkers	Units	OrigDataRate	OrigDataStartFrame	OrigNumFrames
100.00	100.00	       12	19	mm	100.00	319	       636
Frame#	Time	Headset_Front			Headset_Back			Headset_Left			Headset_Right			Left_Shoulder			Right_Shoulder			Sternum			C7			Left Elbow			Right Elbow			Left Wrist			Right Wrist			Left ASIS			Right ASIS			S2			Left Knee			Right Knee			Left Ankle			Right Ankle			
		X1	Y1	Z1	X2	Y2	Z2	X3	Y3	Z3	X4	Y4	Z4	X5	Y5	Z5	X6	Y6	Z6	X7	Y7	Z7	X8	Y8	Z8	X9	Y9	Z9	X10	Y10	Z10	X11	Y11	Z11	X12	Y12	Z12	X13	Y13	Z13	X14	Y14	Z14	X15	Y15	Z15	X16	Y16	Z16	X17	Y17	Z17	X18	Y18	Z18	X19	Y19	Z19	

319	3.180	-463.86118	1584.04211	643.21472	-455.00540	1645.66797	505.25546							-140.73019	1514.53845	666.35468	-386.14203	1479.77759	335.66260	-339.55197	1342.79297	542.94202	-168.86765	1542.78137	419.81946	-57.82827	1237.50928	729.09430	-392.85165	1200.53003	247.11678	-211.64223	1074.95056	800.29639	-469.76846	1022.69806	400.74408	-266.81473	952.09521	662.06982	-383.17056	968.89478	414.84753	-81.48730	993.72736	439.60291	-316.87485	556.04718	741.77380	-310.20621	504.09058	361.64896	-163.87935	177.92609	657.01422	-140.49530	112.64196	380.40137	
320	3.190	-470.79147	1582.96863	649.08002	-462.54800	1644.69373	511.58279							-147.17532	1513.77258	671.55695	-394.38275	1479.73267	341.44623	-346.55679	1342.34814	548.35162	-176.39330	1542.45532	425.77301	-65.46889	1236.56921	734.02728	-401.51523	1200.76416	252.69563	-218.68019	1073.75598	805.55573	-477.48239	1022.59949	405.98145	-273.34082	951.26624	666.50757	-390.22903	968.70563	420.27570	-88.55021	993.27740	444.47580	-324.53653	554.98999	747.42017	-313.69263	503.46777	364.78098	-189.17685	168.86156	673.03485	-140.64017	113.05447	381.00851	
321	3.200	-477.73758	1581.61047	655.10278	-468.99139	1643.62170	517.55115							-153.90161	1513.67090	676.97583	-402.65311	1479.35474	347.77945	-354.33365	1341.93909	554.35443	-184.42250	1542.60144	430.15985	-73.15121	1235.98120	739.02191	-409.39102	1200.26575	258.05496	-226.05865	1072.97302	811.76678	-485.26694	1022.08569	411.81332	-280.17276	950.44733	671.56616	-397.41440	968.14398	425.93646	-95.71632	993.03821	450.34720	-332.07599	553.50964	751.77881	-316.24326	502.26932	368.55130	-214.87657	159.03418	687.82965	-141.04442	113.50237	381.56332	
322	3.210	-485.57941	1580.19275	661.54993	-476.59457	1642.52954	523.87952							-159.75180	1512.60632	681.97815	-411.03723	1478.89746	354.22791	-362.08838	1341.81482	560.50690	-192.12123	1541.52698	436.73260	-80.14942	1234.78772	744.63324	-418.08533	1199.95532	263.10730	-232.98109	1072.28967	817.39575	-492.77371	1021.40747	417.32248	-287.08545	949.74109	676.92865	-404.88141	968.19269	431.59793	-103.26785	992.83234	455.46463	-338.19907	551.43011	756.17975	-319.97858	501.75003	372.27789	-241.14789	149.15778	704.05933	-141.34596	114.21105	381.89539	
323	3.220	-492.48932	1578.49731	667.38434	-484.04590	1641.14844	530.16235							-166.21840	1511.82239	687.30981	-419.21179	1478.51550	360.76791	-369.26227	1341.10193	566.87579	-199.64574	1541.23401	441.98798	-86.81137	1234.74548	749.40228	-426.83823	1200.00708	269.31186	-239.62570	1071.08643	823.38257	-500.62616	1021.08453	422.97934	-294.21381	949.37836	682.40955	-412.44055	967.73407	437.62122	-111.43224	992.66669	461.20850	-344.23254	549.63934	760.02704	-323.79230	501.06354	375.64966	-267.89578	140.97234	718.04865	-141.93188	115.47152	382.51865	
324	3.230	-500.00937	1577.26404	673.49652	-491.15671	1640.20068	536.51239							-172.60855	1511.22363	692.87885	-427.43790	1478.21033	367.65994	-376.58502	1341.02075	573.31921	-207.11711	1540.78516	447.49619	-94.13553	1232.87097	754.54230	-435.16629	1199.84424	275.03323	-246.36002	1070.34814	829.13721	-508.31140	1020.23248	428.43475	-301.25043	948.50598	688.51373	-420.02737	967.51007	443.60767	-118.98863	992.57288	467.10574	-350.25604	547.56177	763.91779	-327.58359	500.58392	379.34583	-294.11462	133.73940	731.04321	-141.33661	116.28502	381.69910	
325	3.240	-506.97000	1575.55212	680.30408	-498.76529	1639.21497	543.24927							-178.47171	1509.87244	698.01367	-435.44077	1477.78333	374.45514	-385.06448	1340.80640	580.13617	-214.84851	1539.99646	454.01797	-100.25230	1231.63843	759.40643	-444.02283	1199.62561	280.86972	-253.18578	1069.47693	835.37280	-516.45789	1019.54590	434.50653	-308.31360	947.87140	694.33807	-427.70062	967.08765	449.97122	-126.93947	991.82007	473.20651	-354.47534	544.21417	767.87714	-331.35687	500.30078	382.78033	-320.32297	126.87917	743.66772	-141.43251	117.27796	382.21729	
326	3.250	-513.81451	1573.98401	686.83386	-506.06317	1638.17236	550.19629							-185.14110	1509.01404	703.75903	-443.43851	1477.50122	381.04791	-392.73563	1340.83020	586.85797	-223.00717	1539.42285	458.83936	-106.47778	1229.98315	764.10486	-453.00439	1200.27893	286.31845	-259.61914	1069.11279	841.70496	-524.35596	1018.54657	440.36905	-315.80978	947.27698	700.68817	-435.55380	966.91675	456.24689	-134.63272	991.54828	480.38251	-359.37006	541.43109	771.36572	-335.04047	499.99335	386.12192	-346.55280	121.84369	755.05151	-142.31036	118.22121	383.81992	
327	3.260	-521.78278	1572.82434	694.52594	-514.10010	1637.33032	557.55377							-190.91304	1507.75342	709.30493	-451.32010	1477.04321	387.88901	-400.67419	1340.22839	593.50085	-230.47404	1538.21960	464.86758	-113.23505	1229.13037	769.56360	-461.60477	1199.35742	293.49802	-266.41449	1068.71814	847.73108	-532.34583	1017.88513	446.42072	-323.47348	946.52692	707.11066	-443.58112	966.45538	462.80481	-142.42336	991.31616	486.89371	-362.76294	537.96973	774.38629	-339.22327	499.31760	390.06320	-372.74915	118.05923	765.17279	-142.71658	118.93881	384.57626	
328	3.270	-527.99225	1571.16077	701.66425	-521.01068	1636.08105	564.81525							-197.53212	1507.15479	714.86755	-459.34079	1476.59998	394.46375	-408.20334	1339.41089	600.07251	-237.86305	1537.37524	471.11511	-119.72839	1228.05432	774.54724	-470.73523	1199.41211	299.79379	-272.34113	1067.60376	853.84650	-540.18036	1016.97260	452.43314	-332.14459	946.36017	713.91010	-451.91168	966.08179	469.44879	-149.93341	990.55200	494.00031	-366.21472	534.43793	777.21454	-343.19733	499.16141	393.86243	-396.65927	115.67909	774.00427	-143.10292	119.99864	385.86700	
329	3.280	-533.10071	1569.30579	708.66089	-528.06091	1634.59668	572.36945							-204.52275	1506.12109	720.98987	-467.30194	1475.79553	401.47137	-416.41711	1339.34888	606.92065	-245.42888	1535.85132	477.80280	-125.73355	1226.47900	780.32306	-479.61353	1198.56543	306.70761	-278.50381	1067.09497	860.44867	-548.22913	1015.76678	458.97595	-340.31537	945.58588	720.84723	-460.44351	965.53766	476.11227	-157.33932	989.82977	500.57895	-369.14188	530.32947	780.66046	-347.38962	498.63828	398.12500	-419.68735	114.59456	781.48346	-143.34320	121.92129	384.96469	
330	3.290	-539.92657	1567.88232	716.61298	-535.10333	1633.67383	580.14294							-210.32538	1504.57983	726.76343	-475.32712	1475.23242	408.37457	-424.05176	1338.61609	614.07062	-252.80919	1534.80029	482.88394	-131.63214	1224.73352	784.80225	-488.74924	1198.19080	313.60132	-285.36060	1066.72705	867.26862	-556.22961	1014.97675	465.42099	-349.00131	945.02637	727.87457	-469.24756	965.04895	483.01993	-165.44942	989.11237	507.31741	-371.68933	525.86090	783.37134	-351.71436	498.22092	402.31445	-443.21323	111.04607	786.46063	-144.17168	123.49416	385.19626	
